<svg width="513" height="2496" viewBox="0 0 513 2496" fill="none" xmlns="http://www.w3.org/2000/svg">
<path d="M115 124L144 23L332 140L115 124Z" fill="black"/>
<path d="M285 277H191L223 331L285 277Z" fill="black"/>
<path d="M93 890L184 558L406 930L368 1041L93 890Z" fill="black"/>
<path d="M387 1270L153 1098L141 1413L387 1270Z" fill="black"/>
<path d="M85 246L23 195L0 246H85Z" fill="black"/>
<path d="M217 1402L168 1432L217 1453V1402Z" fill="black"/>
<path d="M461 2032L393 1833L283 1972L461 2032Z" fill="black"/>
<path d="M296 1915L247 1983L221 1919L296 1915Z" fill="black"/>
<path d="M261 2209L35 2429L427 2417L261 2209Z" fill="black"/>
<path d="M461 241L26 0L41 525L371 830L461 241Z" fill="#FFE600"/>
<path d="M231 908L99 872L181 1089L231 908Z" fill="#FFE600"/>
<path d="M513 1346L285 1246L389 1437L513 1346Z" fill="#FFE600"/>
<path d="M19 1998L163 1552L316 1745L397 2124L19 1998Z" fill="#FFE600"/>
<path d="M162 2496L157 2287L319 2470L162 2496Z" fill="#FFE600"/>
</svg>
