<svg width="461" height="2406" viewBox="0 0 461 2406" fill="none" xmlns="http://www.w3.org/2000/svg">
<path d="M115 101L144 0L332 117L115 101Z" fill="#FFE600"/>
<path d="M285 254H191L223 308L285 254Z" fill="#FFE600"/>
<path d="M93 867L184 535L406 907L368 1018L93 867Z" fill="#FFE600"/>
<path d="M387 1247L153 1075L141 1390L387 1247Z" fill="#FFE600"/>
<path d="M85 223L23 172L0 223H85Z" fill="#FFE600"/>
<path d="M217 1379L168 1409L217 1430V1379Z" fill="#FFE600"/>
<path d="M461 2009L393 1810L283 1949L461 2009Z" fill="#FFE600"/>
<path d="M296 1892L247 1960L221 1896L296 1892Z" fill="#FFE600"/>
<path d="M261 2186L35 2406L427 2394L261 2186Z" fill="#FFE600"/>
</svg>
