<svg width="2504" height="12184" viewBox="0 0 2504 12184" fill="none" xmlns="http://www.w3.org/2000/svg">
<g id="Group 1">
<g id="secondary">
<g id="Black">
<path d="M561.326 605.852L702.877 112.862L1620.52 683.95L561.326 605.852Z" fill="#FFE600"/>
<path d="M1391.11 1352.66H932.289L1088.48 1616.24L1391.11 1352.66Z" fill="#FFE600"/>
<path d="M453.942 4344.77L898.121 2724.25L1981.72 4540.01L1796.24 5081.81L453.942 4344.77Z" fill="#FFE600"/>
<path d="M1888.98 6199.58L746.807 5360.04L688.234 6897.58L1888.98 6199.58Z" fill="#FFE600"/>
<path d="M414.893 1201.35L112.265 952.41L0 1201.35H414.893Z" fill="#FFE600"/>
<path d="M1059.2 6843.89L820.023 6990.32L1059.2 7092.82V6843.89Z" fill="#FFE600"/>
<path d="M2250.18 9918.98L1918.27 8947.64L1381.35 9626.11L2250.18 9918.98Z" fill="#FFE600"/>
<path d="M1444.8 9347.89L1205.63 9679.8L1078.72 9367.41L1444.8 9347.89Z" fill="#FFE600"/>
<path d="M1273.97 10782.9L170.838 11856.8L2084.23 11798.2L1273.97 10782.9Z" fill="#FFE600"/>
</g>
</g>
<g id="primary">
<path id="Vector 1" d="M2250.18 1176.94L126.908 0.59668L200.125 2563.17L1810.89 4051.9L2250.18 1176.94Z" fill="#10121B"/>
<g id="Vector 2">
<path d="M1127.53 4432.63L483.228 4256.91L883.478 5316.11L1127.53 4432.63Z" fill="#10121B"/>
<path d="M2504 6570.55L1391.11 6082.44L1898.74 7014.73L2504 6570.55Z" fill="#10121B"/>
<path d="M92.7407 9753.02L795.618 7576.05L1542.42 8518.1L1937.79 10368L92.7407 9753.02Z" fill="#10121B"/>
<path d="M790.737 12183.8L766.331 11163.7L1557.07 12056.9L790.737 12183.8Z" fill="#10121B"/>
</g>
</g>
</g>
</svg>
